<svg width="24" height="24" viewBox="0 0 24 24" fill="none" xmlns="http://www.w3.org/2000/svg">
<path d="M23 17.5709C22.9171 18.3664 22.3509 19.0388 21.5528 19.2124C21.4621 19.2318 21.3391 19.1943 21.2665 19.2487C21.1175 19.6775 20.9465 20.0558 20.6239 20.3849C19.4812 21.5497 17.4743 21.1791 16.8071 19.7047C16.776 19.6361 16.6658 19.2565 16.6412 19.25H7.56171C7.40236 19.6438 7.26761 20.0027 6.97481 20.3201C5.84246 21.5406 3.76692 21.2322 3.09321 19.706C3.03361 19.5713 2.98179 19.4003 2.94422 19.2565C2.32363 19.1411 1.15371 19.5933 1.0099 18.7162C1.02804 15.4979 0.956778 12.2706 1.04617 9.05755C1.09152 8.53931 1.80021 7.80471 2.31585 7.80471H12.7622L12.8102 7.75677V6.59203C12.8102 6.53243 12.906 6.3368 12.9553 6.28498C13.0447 6.1891 13.182 6.13728 13.3116 6.12303C13.8959 6.06343 15.1137 6.0712 15.7058 6.12173C16.5648 6.19558 16.1217 7.27611 16.2538 7.8371C16.5337 7.97184 16.8148 8.08455 17.0688 8.26723L22.4273 13.6297C22.702 13.9691 22.9585 14.547 22.9974 14.9836V17.5709H23ZM15.2057 7.80341C15.1953 7.77102 15.2381 7.73345 15.2381 7.72309V7.20614L15.1902 7.15821H13.8959L13.8479 7.20614V7.75548L13.8959 7.80341H15.2057ZM6.60298 10.8766V9.95539C6.60298 9.79344 6.36199 9.55764 6.2143 9.50323C5.99664 9.4229 5.07547 9.4242 4.85004 9.49546C4.67902 9.54987 4.46784 9.80899 4.46784 9.98649V10.8753H3.48189C3.36269 10.8753 3.15929 11.1111 3.11783 11.2238C3.05175 11.4078 3.04916 12.4507 3.11783 12.6295C3.16965 12.7629 3.39768 12.978 3.54537 12.978H4.46654V13.8357C4.46654 13.8461 4.51448 14.0119 4.52355 14.0365C4.60258 14.2308 4.79433 14.3513 4.99903 14.3708C5.21928 14.3915 5.99275 14.4019 6.1832 14.3552C6.3309 14.3202 6.60168 14.0456 6.60168 13.9005V12.9793H7.52284C7.74439 12.9793 7.96723 12.6515 7.99314 12.4468C8.01906 12.2421 8.02035 11.5438 7.98407 11.3533C7.95816 11.2121 7.73532 10.8766 7.58762 10.8766H6.60168H6.60298ZM14.1291 9.7183C14.0358 9.7779 13.9477 9.86988 13.9438 9.98519C13.9956 10.7807 13.8764 11.6591 13.9438 12.4455C13.9671 12.715 14.0915 12.9197 14.3804 12.9469C15.7382 13.0778 17.3046 12.8446 18.6857 12.9469C18.9811 12.9003 19.0731 12.6697 18.8787 12.4274C18.1597 11.5321 17.0364 10.712 16.2707 9.82713L15.9999 9.70923L14.1304 9.717L14.1291 9.7183ZM6.20393 17.8093C5.58334 17.1667 4.49504 17.3118 4.07527 18.0995C3.48837 19.1994 4.57407 20.3927 5.73881 19.9561C6.58743 19.6387 6.83489 18.461 6.20523 17.8093H6.20393ZM19.9191 17.8067C18.8645 16.73 17.0934 17.9647 17.7645 19.3303C18.3592 20.5391 20.2637 20.1245 20.287 18.7188C20.2909 18.4597 20.1005 17.992 19.9191 17.8067Z" fill="#1F2125"/>
<path d="M14.3559 3.02392C14.6785 2.93064 14.9998 3.12239 15.0399 3.45795C15.0775 3.76759 15.0853 4.80018 15.0361 5.09558C14.9454 5.63714 14.1265 5.63714 14.0423 5.13444C14.0009 4.8831 14.0022 3.61472 14.0423 3.35948C14.0592 3.25325 14.2639 3.05113 14.3546 3.02522L14.3559 3.02392Z" fill="#1F2125"/>
<path d="M11.7011 4.1927C11.8126 4.29375 12.6288 5.12682 12.6586 5.19289C12.7247 5.3393 12.7247 5.6036 12.6456 5.74352C12.5238 5.95859 12.1365 6.00005 11.9279 5.89122C11.8346 5.84198 11.0391 5.03483 10.9367 4.90916C10.4392 4.29505 11.1453 3.69001 11.7024 4.1927H11.7011Z" fill="#1F2125"/>
<path d="M18.3657 4.09412C18.5652 4.25478 18.6041 4.62143 18.4577 4.83002C18.2128 5.17724 17.6661 5.54648 17.3849 5.89241C16.8512 6.12173 16.4081 5.65531 16.6931 5.13578L17.7633 4.0721C17.9006 3.99566 18.2413 3.99566 18.3657 4.09542V4.09412Z" fill="#1F2125"/>
</svg>
