<svg width="24" height="24" viewBox="0 0 24 24" fill="none" xmlns="http://www.w3.org/2000/svg">
<path d="M5.75251 5.95065L9.53631 9.73674C9.53402 9.83523 9.63594 9.95433 9.62449 10.0402C9.61418 10.1112 9.51111 10.3059 9.46416 10.3689L8.05325 11.8119L8.70946 12.925C9.06104 13.3934 9.38857 13.8801 9.79513 14.305C10.4204 14.9601 11.182 15.5464 12.0386 15.8591L13.5079 14.376C13.6786 14.2455 13.8858 14.2271 14.0828 14.3073L18.177 18.3911C18.2445 18.5423 18.2354 18.6855 18.201 18.8424C17.4097 19.7459 16.4992 20.5487 15.677 21.4282C14.6795 22.2814 13.8412 22.0409 12.736 21.6012C8.05783 19.7413 4.34275 15.7789 2.39932 11.1786C2.0443 10.338 1.7935 9.72529 2.23784 8.83087C2.50697 8.28804 3.25823 7.72345 3.70716 7.29743C4.12058 6.90576 4.6176 6.34919 5.05278 6.01249C5.28641 5.83155 5.49713 5.77429 5.7548 5.94951L5.75251 5.95065Z" fill="#1F2125"/>
<path d="M20.1639 2.94913C20.8968 3.48968 21.5289 4.35661 21.8244 5.2201C23.0784 8.87907 19.7584 12.4487 16.0216 11.4512C15.8521 11.4066 15.4123 11.1901 15.3001 11.1855C15.2566 11.1832 15.1066 11.2245 15.0516 11.2394C14.2683 11.4455 13.5044 11.7788 12.7245 11.9998C12.6489 11.9963 12.5447 12.017 12.4749 11.9998C12.4543 11.9952 12.4531 11.9551 12.4325 11.946C12.074 11.7902 12.074 11.5898 12.1439 11.2176L12.9158 8.81264C12.5012 7.87929 12.3959 6.85203 12.5894 5.85913C13.2616 2.4189 17.3168 0.848806 20.1639 2.94799V2.94913ZM17.8585 6.25537V4.78263L17.8162 4.74025H16.758L16.7156 4.78263V6.25537H15.2291V7.3273L15.2715 7.36967H16.7156V8.85616H17.8597V7.36967H19.3038C19.313 7.36967 19.3473 7.33188 19.3748 7.34104V6.25423H17.8597L17.8585 6.25537Z" fill="#1F2125"/>
</svg>
