<svg width="24" height="24" viewBox="0 0 24 24" fill="none" xmlns="http://www.w3.org/2000/svg">
<path d="M8.87455 5.16013C9.4504 5.73526 10.3558 7.30186 10.381 8.10514C10.4095 8.97781 8.57556 10.0492 8.71874 10.8956C8.82086 11.5001 10.3421 13.2266 10.8443 13.6944C11.1832 14.0099 12.5171 15.1023 12.8824 15.2116C14.0194 15.5533 14.9721 13.6145 15.8669 13.604C17.1545 13.5893 20.0885 15.7363 19.998 17.081C19.9769 17.3996 18.602 19.5929 18.3251 19.8021C17.7535 20.2321 16.7944 19.8536 16.1543 19.6759C11.0474 18.2502 6.31214 13.7565 4.59194 8.75701C4.34455 8.03679 3.83501 6.56272 4.05293 5.85827C4.15926 5.51341 6.5069 4.03723 6.8859 4.00148C7.34174 3.95942 8.53872 4.82579 8.87455 5.16013Z" fill="#1F2125"/>
</svg>
