<svg width="24" height="24" viewBox="0 0 24 24" fill="none" xmlns="http://www.w3.org/2000/svg">
<path d="M3.08989 20.9709C2.81919 20.5167 3.29209 20.3295 3.48126 19.9893C4.06994 18.9361 4.25748 17.7689 4.43522 16.5903C2.86974 13.9987 2.4164 11.228 3.92807 8.45899C8.1663 0.703756 21.7127 3.66325 20.9707 12.724C20.5239 18.1791 14.6044 20.9172 9.66982 19.8558C9.32085 19.7809 8.58866 19.444 8.34405 19.4472C8.19402 19.4505 6.33012 20.3132 5.87841 20.4516C5.45442 20.5802 3.35243 21.1353 3.08662 20.9693L3.08989 20.9709ZM7.59718 10.8634C6.2176 11.1303 6.37414 13.2661 7.84831 13.2238C9.51979 13.1766 9.18713 10.5541 7.59718 10.8634ZM12.8138 11.1645C11.6528 10.0592 9.98129 11.9996 11.2484 12.9699C12.4486 13.888 13.8624 12.1624 12.8138 11.1645ZM16.0182 10.8617C14.6647 11.0473 14.6517 13.1229 16.1226 13.201C17.8528 13.2922 17.6929 10.6322 16.0182 10.8617Z" fill="#1F2125"/>
</svg>
