<svg width="24" height="24" viewBox="0 0 24 24" fill="none" xmlns="http://www.w3.org/2000/svg">
<path d="M6.65564 4.46789L11.9898 9.81276L17.4864 4.30994C18.9399 3.35275 20.5557 5.08262 19.544 6.50585C17.8277 8.28106 16.03 9.97997 14.3234 11.7637C14.287 11.8017 14.179 11.9073 14.1604 11.9363C14.1489 11.9543 14.1337 11.9616 14.1431 11.9953C14.4029 12.219 14.6326 12.4864 14.8754 12.7311C16.0842 13.9491 17.3003 15.1684 18.5051 16.3849C18.8452 16.7286 19.2702 17.081 19.5799 17.4435C20.5547 18.5854 19.7204 20.1754 18.2325 19.976C17.5122 19.8795 17.2666 19.461 16.7948 18.9923C15.3069 17.5137 13.8627 15.9944 12.3716 14.5195C12.2477 14.3969 12.1161 14.2699 11.9864 14.1617C11.9582 14.1617 11.7507 14.3662 11.7085 14.4079C10.0236 16.0785 8.39022 17.8052 6.71132 19.4829C5.25997 20.8362 3.18479 19.2967 4.3329 17.5841L9.85266 11.9955L9.85194 11.9611C9.76323 11.8941 9.65693 11.7978 9.57593 11.7147C8.27114 10.3795 6.95285 9.04813 5.64637 7.71898C5.28697 7.35312 4.88514 6.99627 4.53827 6.62041C3.13971 5.10553 5.21972 3.07 6.65588 4.46813L6.65564 4.46789Z" fill="#1F2125"/>
</svg>
