<svg width="24" height="24" viewBox="0 0 24 24" fill="none" xmlns="http://www.w3.org/2000/svg">
<path d="M2.801 7.01543C1.73501 6.82814 1.73089 5.21503 2.8013 5.04276L21.1478 5.04099C21.9446 5.11314 22.265 6.11464 21.7506 6.69828C21.6669 6.7931 21.2888 7.01513 21.1757 7.01513H19.0261C19.0229 7.01513 18.9819 7.05606 18.9819 7.0593V19.486C18.9819 19.6589 18.7814 20.1757 18.6986 20.3512C18.2996 21.1957 17.4103 21.8798 16.4713 21.9814C13.5713 22.1021 10.6331 21.9996 7.71897 22.0332C6.26841 21.8745 5.14235 20.7434 4.9954 19.309L4.99482 7.01543H2.801ZM10.7249 16.7218C10.8854 16.541 10.9906 16.3146 11.0032 16.0719C10.8972 14.4237 11.1407 12.6051 11.0017 10.977C10.8978 9.76285 9.2302 9.69865 9.00375 10.8627L9.00317 16.2147C9.15305 17.0063 10.1811 17.3343 10.7252 16.7221L10.7249 16.7218ZM14.5257 10.1474C13.8508 9.76403 13.0551 10.2346 12.9741 10.9752L12.9768 16.0984C13.1629 17.2954 14.7663 17.3797 15.0077 16.1597V10.8871C14.9777 10.6445 14.7407 10.2696 14.5257 10.1477V10.1474Z" fill="#1F2125"/>
<path d="M14.612 2.22791C15.3158 2.76179 15.0092 3.8425 14.1658 4.01035H9.84064C8.75846 3.80481 8.70133 2.29593 9.78352 2.04239C11.1996 2.1272 12.7706 1.91813 14.1688 2.03798C14.344 2.05299 14.4747 2.12367 14.612 2.22791Z" fill="#1F2125"/>
</svg>
