<svg width="24" height="24" viewBox="0 0 24 24" fill="none" xmlns="http://www.w3.org/2000/svg">
<path d="M11.8038 19.3494C11.6532 20.3486 10.6796 21.067 9.67249 20.995C9.02144 20.9485 7.98182 20.2053 7.39479 19.8682C6.57529 19.398 5.61847 18.9185 4.82944 18.3981C4.34219 18.0769 4.051 17.6738 3.92361 17.0962C3.88741 12.9369 3.87968 8.76543 3.92759 4.60677C4.11436 3.73009 4.80846 3.12252 5.67896 3.00243L14.7747 3C15.8017 3.10994 16.542 3.87602 16.6177 4.91011C16.6786 5.74308 16.572 6.65111 16.6151 7.49202C16.5067 8.24816 15.5134 8.31109 15.3196 7.55495L15.3125 4.84653C15.2651 4.65556 15.1474 4.46349 14.9688 4.37341C14.9478 4.36282 14.8259 4.30365 14.8178 4.30365H7.01353C7.0016 4.35686 7.02302 4.33942 7.04244 4.35288C7.12501 4.41028 7.23142 4.471 7.31863 4.52199C8.1463 5.00769 8.99075 5.47506 9.814 5.95656C10.5211 6.37029 11.3713 6.68467 11.6828 7.50505C11.7062 7.56687 11.8045 7.89405 11.8045 7.93533V16.8434H14.7518C14.96 16.8434 15.2679 16.554 15.305 16.337L15.3161 13.8975C15.4929 13.1603 16.4879 13.1868 16.6153 13.9421C16.5215 15.0415 16.9052 16.4858 16.1762 17.4066C15.2295 18.6019 13.2532 17.963 11.9248 18.1228L11.8045 18.146V19.3492L11.8038 19.3494Z" fill="#1F2125"/>
<path d="M17.7425 9.93343C17.7567 9.91908 17.7386 9.88618 17.7273 9.86852C17.5935 9.6621 17.1957 9.39718 17.0308 9.17751C16.5442 8.52977 17.3478 7.77363 17.9679 8.27765L19.8078 10.1191C20.0427 10.42 20.0555 10.7426 19.7966 11.0265C19.1833 11.5804 18.632 12.2568 18.0189 12.8043C17.9205 12.8922 17.7924 12.9946 17.6602 13.0189C17.3683 13.0724 17.0255 12.901 16.925 12.6165C16.7034 11.9897 17.3966 11.689 17.7096 11.2801C17.7266 11.2578 17.7522 11.2523 17.7425 11.2137H12.9628C12.4109 11.2137 12.1901 10.399 12.6162 10.0661C12.6509 10.039 12.8496 9.93321 12.8745 9.93321H17.7425V9.93343Z" fill="#1F2125"/>
</svg>
