<svg width="24" height="24" viewBox="0 0 24 24" fill="none" xmlns="http://www.w3.org/2000/svg">
<path d="M6.00333 5.79695C6.00504 5.78837 6.0536 5.67753 6.06709 5.64001C6.38171 4.7751 7.68385 4.80012 7.95826 5.70548C7.97321 5.75477 7.95531 5.80358 7.96439 5.84232C7.97076 5.86856 8.01392 5.85581 8.01392 5.85826V15.5446C8.05291 15.5417 8.12918 15.489 8.15394 15.4639C8.85014 14.7604 9.52254 14.0296 10.2629 13.355C10.2837 13.3359 10.281 13.2893 10.3011 13.2711C10.9103 12.7147 11.8833 13.0625 12 13.8759C12.0969 14.5512 11.4203 14.9654 11.0128 15.3801C10.1358 16.2724 9.23612 17.2075 8.34816 18.0864C7.84202 18.5871 7.3528 19.2664 6.53694 18.9025C5.05407 17.526 3.64819 16.0287 2.19401 14.6069C1.56207 13.6618 2.59177 12.5642 3.59008 13.1762L5.7684 15.3629L6.00284 15.5691V5.79695H6.00333Z" fill="#1F2125"/>
<path d="M15.984 8.45765C15.9334 8.44343 15.9364 8.48364 15.9173 8.49909C15.1296 9.1406 14.4148 10.1097 13.635 10.7858C12.6997 11.5185 11.4919 10.326 12.2006 9.39073C12.5425 8.93976 13.169 8.49934 13.5454 8.05524C14.1698 7.40785 14.8186 6.77713 15.4589 6.14176C16.0475 5.55739 16.6806 4.56986 17.6181 5.20598L21.837 9.42188C22.4169 10.4128 21.3367 11.4754 20.3683 10.7861C19.7204 10.1249 19.0564 9.47852 18.3982 8.82672C18.2783 8.70803 18.1481 8.56531 18.0433 8.43362C18.0316 8.42774 17.9948 8.46624 17.9948 8.47016V18.2056C17.9948 18.2105 17.9641 18.2264 17.9597 18.2441C17.7949 18.9042 17.1095 19.1884 16.4984 18.8682C16.2586 18.7424 16.1816 18.5984 16.0793 18.3603C16.0308 18.2475 16.0578 18.2541 16.0335 18.1602C16.0269 18.1342 15.984 18.147 15.984 18.1443V8.4579V8.45765Z" fill="#1F2125"/>
</svg>
