<svg width="24" height="24" viewBox="0 0 24 24" fill="none" xmlns="http://www.w3.org/2000/svg">
<path d="M14.293 12.7489C15.3451 13.1188 16.325 14.1245 16.7234 15.1411C17.011 15.8748 17.0852 17.1104 16.9538 17.9215C16.7764 19.0171 15.9032 19.8236 14.8018 19.9987H9.19024C8.03053 19.8227 7.07694 18.8706 6.99792 17.6724C6.94584 16.8818 6.99102 15.9351 7.25413 15.2112C7.7997 13.7103 9.2913 12.5884 10.9046 12.4951C11.8979 12.4377 13.3716 12.4246 14.2932 12.7487L14.293 12.7489Z" fill="#1F2125"/>
<path d="M13.2022 5.22527C15.0028 5.90618 15.8482 8.07156 15.0157 9.79532C13.7972 12.318 10.2295 12.32 9.0001 9.79821C7.68124 7.09327 10.3759 4.15638 13.2024 5.22527H13.2022Z" fill="#1F2125"/>
<path d="M3.47054 16.6812C2.72953 16.579 2.0967 15.9338 2.01167 15.1796C2.07801 14.196 1.82603 13.1244 2.27656 12.2151C2.60911 11.5438 3.31584 11.0147 4.02814 10.8727C4.49269 10.7801 5.85006 10.7754 6.3431 10.8259C6.88556 10.8816 7.52997 11.1418 7.9224 11.5402C7.97738 11.5961 8.08088 11.7085 8.0633 11.7811C7.94666 11.8385 7.81644 11.9202 7.71227 11.9972C6.3638 12.9929 5.60832 14.4444 5.3746 16.0702C5.35056 16.2369 5.4022 16.4682 5.37349 16.6256C5.36904 16.6505 5.36214 16.6672 5.3401 16.6812H3.47032H3.47054Z" fill="#1F2125"/>
<path d="M20.3686 10.9915C21.2089 11.2907 21.8671 12.1468 21.9801 13.0409C21.9303 13.7441 22.0434 14.5312 21.9801 15.2241C21.9129 15.9609 21.1951 16.6294 20.4552 16.6819L18.6764 16.6783C18.5863 16.6476 18.6263 16.2142 18.6177 16.1138C18.4739 14.4495 17.5419 12.8951 16.1596 11.9042C16.0941 11.8572 15.9136 11.7993 15.9236 11.7085L16.225 11.4055L16.6114 11.1413C16.9066 10.9842 17.1677 10.9172 17.4918 10.8691C18.0914 10.7801 19.1919 10.7818 19.7878 10.8702C19.9991 10.9014 20.1582 10.9165 20.3686 10.9913V10.9915Z" fill="#1F2125"/>
<path d="M6.76682 5.45008C8.26888 6.44441 8.18452 8.76916 6.63661 9.67556C5.12854 10.5588 3.21224 9.68981 2.88347 8.00834C2.45387 5.81002 4.88258 4.20245 6.76682 5.44986V5.45008Z" fill="#1F2125"/>
<path d="M19.5905 5.18098C19.596 5.18298 19.5974 5.20769 19.6156 5.21504C20.8953 5.73434 21.5059 7.21859 20.9636 8.50918C20.5234 9.55693 19.3483 10.1976 18.2264 9.98319C17.4097 9.82716 16.683 9.31764 16.3437 8.50473C15.4774 6.42861 17.519 4.39323 19.5905 5.18076V5.18098Z" fill="#1F2125"/>
</svg>
