<svg width="24" height="24" viewBox="0 0 24 24" fill="none" xmlns="http://www.w3.org/2000/svg">
<path d="M21 10.5246V20.0783C20.9407 20.978 20.3619 21.7252 19.4713 21.961L15.8044 21.9675C14.9566 21.8042 14.3372 21.0872 14.2285 20.2535C14.201 18.3255 14.2823 16.3855 14.1868 14.465C14.078 14.2022 13.8485 14.026 13.5575 14.0044C12.2144 13.9049 10.745 14.0811 9.38871 14.0044C9.05595 14.04 8.79238 14.3417 8.77152 14.6651L8.76932 20.2492C8.7177 21.0072 7.95006 21.9004 7.17034 21.9675C6.00734 22.067 4.6862 21.9015 3.50783 21.9545C2.6128 21.7004 2.05711 20.978 2 20.0654V10.5624C2.03844 9.96224 2.28443 9.44752 2.74129 9.05174C5.23421 6.9777 7.53714 4.66792 10.0334 2.60145C10.891 1.891 11.8608 1.76989 12.7887 2.45438C15.3827 4.78579 18.0546 7.0415 20.6003 9.4194C20.8265 9.72759 20.9703 10.1439 21 10.5235V10.5246Z" fill="#1F2125"/>
</svg>
