<svg width="24" height="24" viewBox="0 0 24 24" fill="none" xmlns="http://www.w3.org/2000/svg">
<path d="M22.0634 13.0317C22.1282 10.2361 22.2153 7.43429 22.0662 4.70904C22.0578 4.55265 22.0539 4.36497 21.9522 4.2365C21.9494 4.13987 21.9204 4.04938 21.8964 3.95722C21.8779 3.88572 21.8444 3.85779 21.8405 3.8455C21.8349 3.82875 21.8466 3.80585 21.8405 3.78965C21.821 3.73714 21.8003 3.71256 21.7846 3.67793C21.349 2.71552 20.4715 2.09887 19.413 2L4.60987 2.00279C3.77704 2.10389 3.21122 2.43512 2.6817 3.06295C2.26724 3.55505 2.07007 3.98961 2.00918 4.65263L2.00695 19.3513C1.97511 19.425 2.0628 19.5127 2.06671 19.5401C2.26668 20.8829 3.24864 21.8458 4.60596 22L19.6275 21.9922C20.7932 21.7693 21.6724 20.9756 21.9517 19.8199C21.9913 19.6551 22.0902 19.4825 22.0662 19.2921C22.0544 19.0206 22.0455 18.748 22.0382 18.4755C22.1002 16.6797 22.093 14.8582 22.0634 13.0311V13.0317ZM15.4019 4.9766C18.6254 4.47501 18.684 9.29934 15.6683 9.09546C13.2553 8.93236 13.1325 5.32961 15.4019 4.9766ZM18.6003 18.5363L5.61081 18.5391C5.44492 18.552 5.1176 18.3822 5.02711 18.2571C4.86569 18.0336 4.88021 17.6343 5.04722 17.4114L8.97003 11.671C9.25937 11.3191 9.56378 11.1102 10.019 11.3387C10.9379 12.4882 11.7567 13.7455 12.5907 14.9665C12.7599 15.2145 12.9174 15.4854 13.071 15.7435L14.9947 13.0043C15.2868 12.7373 15.6192 12.7289 15.9387 12.9591L19.0566 17.4935C19.2918 17.9336 19.0628 18.395 18.6003 18.5369V18.5363Z" fill="#1F2125"/>
</svg>
