<svg width="24" height="24" viewBox="0 0 24 24" fill="none" xmlns="http://www.w3.org/2000/svg">
<path d="M13.4007 13.3979C14.1727 12.6259 14.1727 11.3742 13.4007 10.6021C12.6286 9.83009 11.3769 9.8301 10.6049 10.6021C9.83288 11.3742 9.83288 12.6259 10.6049 13.3979C11.3769 14.1699 12.6286 14.1699 13.4007 13.3979Z" fill="#1F2125"/>
<path d="M15.3984 6.9628C14.9143 6.6356 14.3797 6.37634 13.8088 6.19875C13.238 6.02115 12.6306 5.92579 12.0045 5.92579C11.1693 5.92579 10.3685 6.09551 9.64177 6.40317C8.55139 6.86452 7.62666 7.63265 6.97255 8.60083C6.64536 9.08492 6.38611 9.61947 6.20851 10.1905C6.03091 10.7612 5.93555 11.3686 5.93555 11.9947C5.93555 12.8299 6.10527 13.6307 6.41293 14.3574C6.87428 15.4478 7.64241 16.3725 8.61059 17.0267C9.09468 17.3539 9.62923 17.6131 10.2002 17.7907C10.7709 17.9683 11.3784 18.0637 12.0045 18.0637C12.8397 18.0637 13.6405 17.8939 14.3672 17.5863C15.4576 17.1249 16.3823 16.3568 17.0364 15.3886C17.3636 14.9045 17.6229 14.37 17.8005 13.799C17.9781 13.2283 18.0734 12.6208 18.0734 11.9947C18.0734 11.1595 17.9037 10.3587 17.596 9.63201C17.1347 8.54163 16.3666 7.6169 15.3984 6.9628ZM15.716 13.5619C15.4109 14.2834 14.8991 14.9004 14.2555 15.3347C13.9339 15.5519 13.5801 15.7237 13.2025 15.8409C12.8248 15.9584 12.4238 16.0217 12.0045 16.0217C11.4454 16.0217 10.9185 15.9092 10.437 15.7056C9.71555 15.4006 9.09848 14.8888 8.66425 14.2452C8.44699 13.9235 8.27523 13.5698 8.15799 13.1921C8.04047 12.8145 7.97719 12.4135 7.97719 11.9941C7.97719 11.4351 8.08976 10.9081 8.29331 10.4267C8.59835 9.7052 9.11014 9.08813 9.75375 8.65391C10.0754 8.43665 10.4291 8.26489 10.8068 8.14766C11.1844 8.03013 11.5854 7.96685 12.0048 7.96685C12.5638 7.96685 13.0908 8.07941 13.5722 8.28296C14.2937 8.588 14.9108 9.0998 15.345 9.74341C15.5623 10.0651 15.734 10.4188 15.8513 10.7965C15.9688 11.1741 16.0321 11.5751 16.0321 11.9944C16.0321 12.5535 15.9195 13.0804 15.716 13.5619Z" fill="#1F2125"/>
<path d="M21.2138 8.10714C20.4538 6.31133 19.1873 4.78644 17.5918 3.70832C16.794 3.1694 15.9136 2.74217 14.9734 2.44968C14.0332 2.15718 13.0335 2 12 2C10.6221 2 9.30425 2.27996 8.10714 2.78621C6.31134 3.54618 4.78645 4.81269 3.70832 6.40815C3.1694 7.20603 2.74218 8.08643 2.44969 9.02662C2.15719 9.96681 2 10.9665 2 12C2 13.3779 2.27996 14.6957 2.78621 15.8928C3.54618 17.6887 4.81269 19.2135 6.40816 20.2917C7.20603 20.8306 8.08644 21.2578 9.02663 21.5503C9.96682 21.8428 10.9665 22 12 22C13.3779 22 14.6957 21.72 15.8928 21.2138C17.6887 20.4538 19.2136 19.1873 20.2917 17.5918C20.8306 16.794 21.2581 15.9136 21.5503 14.9734C21.8428 14.0332 22 13.0335 22 12C22 10.6221 21.72 9.30424 21.2138 8.10714ZM19.3337 15.0976C18.7303 16.5245 17.7199 17.7417 16.449 18.6003C15.8135 19.0295 15.1136 19.369 14.3668 19.6011C13.62 19.8332 12.8262 19.9586 11.9997 19.9586C10.898 19.9586 9.85367 19.7358 8.9021 19.3337C7.4752 18.7303 6.25797 17.7199 5.39943 16.449C4.97017 15.8135 4.63072 15.1136 4.39859 14.3668C4.16646 13.62 4.04106 12.8262 4.04106 11.9997C4.04106 10.898 4.26386 9.85366 4.66601 8.9021C5.26937 7.47519 6.27984 6.25797 7.55073 5.39943C8.18617 4.97016 8.88606 4.63072 9.6329 4.39859C10.3797 4.16646 11.1735 4.04106 12 4.04106C13.1017 4.04106 14.146 4.26386 15.0976 4.666C16.5245 5.26937 17.7417 6.27984 18.6003 7.55072C19.0295 8.18617 19.369 8.88606 19.6011 9.6329C19.8332 10.3797 19.9586 11.1735 19.9586 12C19.9586 13.1017 19.7358 14.146 19.3337 15.0976Z" fill="#1F2125"/>
</svg>
