<svg width="24" height="24" viewBox="0 0 24 24" fill="none" xmlns="http://www.w3.org/2000/svg">
<path d="M14.2384 4.15711C15.9989 4.85908 17.2623 6.19002 17.7517 8.03038C18.3147 10.1475 17.6308 12.5126 18.7868 14.4667C19.3536 15.4251 20.6098 16.1994 20.0328 17.4577C19.7642 18.0431 19.1916 18.378 18.5613 18.4313H4.60053C3.92504 18.3699 3.29031 17.9654 3.08043 17.3021C2.70006 16.0999 3.76237 15.4832 4.31254 14.6008C5.60918 12.5211 4.80634 9.97567 5.51137 7.72439C5.93011 6.38768 6.79918 5.31756 8.00412 4.61354C8.17902 4.51132 8.84839 4.23386 8.93126 4.14828C8.98831 4.08952 9.12721 3.62222 9.19412 3.49554C10.4225 1.16988 13.5846 1.68405 14.2387 4.15711H14.2384Z" fill="#1F2125"/>
<path d="M14.4096 20.5799C13.2488 22.0959 11.1778 22.4593 9.57182 21.3719C9.20164 21.1212 8.67015 20.5955 8.47623 20.1924C8.42359 20.0827 8.41034 20.0138 8.464 19.8986L8.64094 19.8548L14.6195 19.8562C14.9109 19.9092 14.578 20.3975 14.4948 20.5144C14.4687 20.551 14.4242 20.5602 14.4092 20.5799H14.4096Z" fill="#1F2125"/>
</svg>
