<svg width="24" height="24" viewBox="0 0 24 24" fill="none" xmlns="http://www.w3.org/2000/svg">
<path d="M17.2167 19.8921C18.4379 19.7684 19.4455 18.7923 19.594 17.5868V13.4305C19.576 13.363 19.2521 13.255 19.1891 13.2191C18.1118 12.6028 17.1559 12.0698 16.9265 10.6776C16.967 8.83556 16.7421 6.78213 16.8883 4.95812C16.931 4.41608 17.2414 4.10571 17.7699 4L22.4188 4.0045C22.8462 4.10796 23.1273 4.34636 23.2375 4.78269V10.5089C23.0846 11.7009 22.2906 12.5466 21.2313 13.0549L20.5296 13.4305V17.6228C20.3564 19.3478 18.9755 20.6681 17.2527 20.83H0.753266C0.775757 20.234 0.710534 19.602 0.791501 19.0105C1.18284 16.1249 3.32174 13.5924 6.08138 12.7422C6.45923 12.8637 6.81234 13.0571 7.19918 13.1538C8.38671 13.4507 9.66194 13.2685 10.764 12.7445C11.495 12.9717 12.2102 13.3225 12.8377 13.7543C14.1174 14.6382 15.206 16.0597 15.7053 17.5553C15.9594 18.3155 16.0719 19.0959 16.1236 19.8944C16.4745 19.8674 16.8726 19.9304 17.2167 19.8944V19.8921ZM19.594 6.76189C19.5445 7.09701 19.6299 7.54233 19.594 7.88869H18.4312C18.4177 7.88869 18.222 7.99215 18.2018 8.00789C17.9926 8.16758 17.9656 8.52519 18.168 8.70736C18.2063 8.7411 18.2557 8.7456 18.2985 8.76809C18.3165 8.77708 18.3075 8.82432 18.3097 8.82432H19.594V10.0208C19.594 10.0478 19.6907 10.212 19.7177 10.2435C19.8504 10.4009 20.0415 10.4099 20.2372 10.3874C20.3497 10.3739 20.5296 10.0636 20.5296 9.95111V8.82432H21.7621C21.7621 8.82432 21.915 8.73885 21.9353 8.72086C22.1062 8.57242 22.1602 8.2508 22.0095 8.07312C21.9825 8.03938 21.7149 7.88869 21.6901 7.88869H20.5273V6.76189C20.5273 6.72141 20.4149 6.47176 20.3789 6.44252C20.3677 6.43352 20.1517 6.32782 20.1315 6.32557C19.8639 6.30533 19.6299 6.4965 19.5895 6.76189H19.594Z" fill="#1F2125"/>
<path d="M9.9025 4.53529C12.6599 5.58787 13.3661 9.30563 11.1822 11.3073C9.03434 13.2775 5.49651 12.4049 4.58113 9.62725C3.51281 6.37955 6.69303 3.30953 9.90025 4.53304L9.9025 4.53529Z" fill="#1F2125"/>
</svg>
