<svg width="24" height="24" viewBox="0 0 24 24" fill="none" xmlns="http://www.w3.org/2000/svg">
<path d="M13.2413 2.00033C13.2446 2.0469 13.2413 2.0925 13.2335 2.13875C13.0326 3.28361 12.1698 5.02744 12.6622 6.11335C13.2671 7.44711 14.8699 7.36894 16.116 7.57772C16.8886 7.70735 17.671 7.85555 18.4455 7.9842C18.88 8.05651 19.3203 8.10211 19.7512 8.19298L19.7574 19.9969C19.6607 21.0568 18.7608 21.8857 17.7159 21.9941L7.16562 22C6.00155 21.929 5.10292 21.0639 5 19.8989L5.00488 4.00635C5.05635 3.08753 6.11098 2 7.03729 2H13.242L13.2413 2.00033ZM13.099 10.1228C12.5502 9.66159 11.732 9.89968 11.3786 10.4788C10.9086 11.2488 11.3695 12.3676 11.7255 13.1082C11.7731 13.2076 11.9861 13.53 11.9981 13.5873C12.0138 13.6609 11.6154 14.3316 11.5421 14.4531C11.0295 15.3012 10.424 16.092 9.85335 16.9007C9.08338 17.1636 8.13004 17.1929 7.50273 17.7652C6.60345 18.5853 7.00277 20.0617 8.33914 19.9461C9.16057 19.8751 9.75368 18.7387 10.0947 18.086C10.1553 17.97 10.2628 17.646 10.3514 17.5935L14.0768 16.7223C14.1322 16.7187 14.6298 17.3681 14.7269 17.4678C15.134 17.8854 15.7128 18.3537 16.318 18.3843C17.3169 18.4345 18.0615 17.6098 17.6439 16.6353C17.1485 15.4797 15.3529 15.7302 14.3536 15.8376L12.9648 13.6587C12.9134 13.5153 13.1612 13.1317 13.2254 12.9766C13.5886 12.0966 13.9608 10.8465 13.0993 10.1228H13.099Z" fill="#1F2125"/>
<path d="M14.1745 2.53292C14.4002 2.73225 14.5996 2.9824 14.8171 3.19215C16.1616 4.48814 17.499 5.79748 18.8396 7.10258C18.8617 7.12408 19.0002 7.25371 18.9735 7.27651L15.2532 6.68144C14.7149 6.53585 14.0752 6.6036 13.6433 6.1906C13.3414 5.9017 13.2081 5.45809 13.2775 5.04965L13.9576 2.39124C13.981 2.36909 14.1445 2.50687 14.1739 2.53292H14.1745Z" fill="#1F2125"/>
<path d="M12.5225 14.3792L13.5006 16.0041L11.0594 16.592L12.4307 14.3811L12.5225 14.3792Z" fill="#1F2125"/>
<path d="M16.845 16.7992C17.0417 16.9949 17.0525 17.3425 16.8033 17.4991C16.4528 17.7193 16.1105 17.5942 15.8187 17.3532C15.6545 17.2177 15.2751 16.8243 15.1468 16.6572C15.1217 16.6246 15.0836 16.6158 15.0982 16.5595C15.5552 16.509 16.4968 16.4526 16.845 16.7992Z" fill="#1F2125"/>
<path d="M12.2874 10.6713C12.4147 10.642 12.5264 10.6586 12.6241 10.7443C13.1192 11.1788 12.7205 12.2054 12.4434 12.6832C12.1877 12.2044 11.6513 11.2436 12.1327 10.7772C12.1782 10.7332 12.2222 10.6863 12.2874 10.6713Z" fill="#1F2125"/>
<path d="M9.10454 18.0255C8.93811 18.3717 8.72021 18.6932 8.5186 19.0185C8.14762 19.4547 7.61118 19.0755 7.87533 18.5381C8.05154 18.1795 8.74301 18.0525 9.10487 18.0255H9.10454Z" fill="#1F2125"/>
</svg>
