<svg width="24" height="24" viewBox="0 0 24 24" fill="none" xmlns="http://www.w3.org/2000/svg">
<path d="M20.602 19.4852L17.1623 16.0239C17.2937 15.8592 17.4193 15.6892 17.5377 15.5145C18.4028 14.2346 18.9091 12.6857 18.9085 11.0261C18.9085 9.92032 18.6841 8.86249 18.2773 7.90179C17.6674 6.46016 16.6513 5.23649 15.3711 4.37115C14.0915 3.50582 12.543 2.99941 10.8839 3C9.77836 3 8.72081 3.22448 7.76037 3.63138C6.31911 4.24144 5.09576 5.25781 4.23066 6.53834C3.36555 7.81828 2.85927 9.36712 2.85986 11.0267C2.85986 12.1325 3.08428 13.1904 3.49108 14.151C4.10098 15.5927 5.11708 16.8164 6.39727 17.6817C7.67688 18.547 9.22531 19.0534 10.8845 19.0528C11.99 19.0528 13.0475 18.8284 14.008 18.4215C14.6966 18.1301 15.3349 17.7445 15.9087 17.2831L19.3413 20.7373C19.6865 21.0856 20.2491 21.0879 20.5972 20.742C20.9454 20.3967 20.9478 19.8341 20.602 19.4858V19.4852ZM14.3763 16.2087C13.8777 16.5457 13.3282 16.8122 12.742 16.9946C12.1558 17.1771 11.5329 17.2754 10.8839 17.2754C10.0188 17.2754 9.19925 17.1007 8.45257 16.7844C7.33225 16.3105 6.37655 15.5169 5.7027 14.5195C5.02885 13.5209 4.63686 12.3232 4.63627 11.0261C4.63627 10.1608 4.81095 9.34106 5.12715 8.59418C5.60086 7.47357 6.39431 6.51761 7.39147 5.84359C8.38981 5.16956 9.5871 4.77746 10.8839 4.77687C11.749 4.77687 12.5685 4.9516 13.3152 5.26788C14.4355 5.74171 15.3912 6.53538 16.0651 7.5328C16.7389 8.5314 17.1309 9.72901 17.1315 11.0261C17.1315 11.8915 16.9568 12.7112 16.6406 13.4581C16.1669 14.5787 15.3734 15.5346 14.3763 16.2087Z" fill="#1F2125"/>
</svg>
