<svg width="24" height="24" viewBox="0 0 24 24" fill="none" xmlns="http://www.w3.org/2000/svg">
<path d="M8.20027 11.7227C8.96112 11.6779 9.50438 12.3325 10.1557 12.6499C11.373 13.243 12.6217 13.2435 13.8398 12.6499C14.7522 12.2055 15.0128 11.5731 16.1667 11.7666C18.1296 12.0955 19.0128 13.9318 19.3293 15.7182C19.7825 18.2779 19.5815 20.8602 16.4111 21.0423C13.3608 21.2173 10.0989 20.948 7.03615 20.9896C4.56699 20.5013 4.32354 18.5583 4.56053 16.3982C4.79335 14.2792 5.75052 11.8669 8.19981 11.7227H8.20027Z" fill="#1F2125"/>
<path d="M14.7037 4.05983C17.0052 6.02084 16.6158 9.7128 13.9688 11.1624C11.6059 12.4564 8.4992 11.2377 7.73559 8.64891C6.50355 4.4719 11.4003 1.24513 14.7037 4.05983Z" fill="#1F2125"/>
</svg>
