<svg width="24" height="24" viewBox="0 0 24 24" fill="none" xmlns="http://www.w3.org/2000/svg">
<path d="M11.677 2.01024L12.2501 2C19.911 2.20397 24.5588 10.7102 20.4977 17.2764C16.5595 23.6435 7.21064 23.5605 3.40537 17.1079C-0.469977 10.5365 4.11868 2.28732 11.6774 2.0106L11.677 2.01024ZM12.0132 12.0152V6.25785C12.0132 6.20339 11.8628 5.95884 11.8121 5.91095C11.4437 5.56369 10.8447 5.78228 10.7443 6.26663L10.7341 12.6198C10.7348 12.9265 10.9637 13.2021 11.2638 13.2591L15.3081 13.25C15.7141 13.0884 15.905 12.6618 15.6425 12.274C15.5994 12.2104 15.3779 12.0155 15.3165 12.0155H12.0128L12.0132 12.0152Z" fill="#1F2125"/>
</svg>
