<svg width="24" height="24" viewBox="0 0 24 24" fill="none" xmlns="http://www.w3.org/2000/svg">
<path d="M15.5681 2.10224C16.5954 2.58199 17.1165 3.27605 17.9268 4.07629C18.7372 4.87652 19.7163 5.54306 19.9555 6.70507C20.0148 11.0897 20.0148 15.4959 19.9555 19.8805C19.6755 21.0484 18.7613 21.8978 17.6264 22H7.39214C6.17011 21.9037 5.15577 20.9107 5 19.6131V4.44593C5.12053 3.14235 6.12931 2.13763 7.33836 2.00393L15.0173 2C15.0859 2.0059 15.5291 2.08455 15.5681 2.10224ZM11.7054 9.35549V12.4404C11.7054 12.4601 11.8389 12.7432 11.8593 12.7786C12.1356 13.219 12.8681 13.1895 13.1463 12.753C13.1685 12.7177 13.2816 12.4876 13.2816 12.4719V9.35745C13.5802 9.54424 13.8917 10.0928 14.2051 10.2167C14.5593 10.3563 14.9116 10.258 15.1341 9.93748C15.4141 9.53441 15.2973 9.13921 15.0192 8.79119C14.4332 8.0637 13.6284 7.41486 13.0313 6.68345C12.6789 6.40228 12.3118 6.40425 11.9576 6.68345C11.3605 7.41683 10.5538 8.0637 9.96972 8.79119C9.78428 9.02124 9.68043 9.20016 9.70083 9.52261C9.72494 9.92765 10.0828 10.2816 10.4611 10.2993C10.9748 10.3228 11.3419 9.65041 11.7073 9.35549H11.7054ZM16.1114 16.1133C16.015 16.0149 15.7832 15.8773 15.6497 15.8596H9.37075C8.46211 16.0248 8.42317 17.3028 9.31327 17.5328H15.6793C16.282 17.4208 16.5583 16.5655 16.1132 16.1133H16.1114Z" fill="#1F2125"/>
</svg>
