<svg width="24" height="24" viewBox="0 0 24 24" fill="none" xmlns="http://www.w3.org/2000/svg">
<path d="M15.5835 5.2689C15.5889 5.27149 15.59 5.29332 15.6116 5.30435C16.459 5.7346 16.9444 6.51977 17.0479 7.43005C16.9426 10.2656 17.0289 13.1292 16.9991 15.976C17.3047 17.5778 15.9712 19.0812 14.2897 19.0376C11.1241 18.9601 7.92454 18.9601 4.75899 19.0376C3.21331 19.0289 2.15633 17.9916 2 16.4924C2.08568 13.6182 2.0669 10.6958 2.01127 7.81899C1.99109 7.21902 2.12887 6.71506 2.41618 6.22706C2.89479 5.51443 3.69028 5.01704 4.57074 5.00014C4.69726 4.99779 4.80993 5.02549 4.92283 5.02573C7.99049 5.03113 11.0586 5.03113 14.1265 5.02573C14.7056 5.02479 15.0396 5.0154 15.5839 5.26844L15.5835 5.2689Z" fill="#1F2125"/>
<path d="M21.6157 6.91198C21.7972 6.99437 21.9192 7.19108 21.988 7.37229L22 16.5856C21.8322 17.2365 21.2482 17.3412 20.7268 16.9724C20.1147 16.5398 19.444 15.9356 18.86 15.4472C18.8457 15.4352 18.8159 15.4352 18.8021 15.4232C18.7098 15.3446 18.6218 15.2688 18.5504 15.1716L18.5479 8.86187C18.5502 8.84403 18.7629 8.62503 18.7915 8.60038C19.1858 8.26214 19.6647 7.93634 20.0809 7.60608C20.3074 7.42627 20.6339 7.08733 20.8698 6.95306C21.0801 6.83312 21.3878 6.8087 21.6155 6.91222L21.6157 6.91198Z" fill="#1F2125"/>
</svg>
